<svg xmlns="http://www.w3.org/2000/svg" viewBox="0 0 128 128" width="128" height="128">
  <defs>
    <linearGradient id="f" x1="0" y1="0" x2="1" y2="1">
      <stop offset="0" stop-color="#3ccf8e"/>
      <stop offset="1" stop-color="#157a5b"/>
    </linearGradient>
    <filter id="s" x="-20%" y="-20%" width="140%" height="140%">
      <feDropShadow dx="0" dy="2" stdDeviation="2" flood-color="#000" flood-opacity="0.35"/>
    </filter>
  </defs>
  <rect x="6" y="6" width="116" height="116" rx="26" fill="url(#f)" filter="url(#s)"/>
  <!-- arco del velocímetro -->
  <path d="M 26 84 A 38 38 0 1 1 102 84" fill="none" stroke="#fff" stroke-opacity="0.35" stroke-width="10" stroke-linecap="round"/>
  <path d="M 26 84 A 38 38 0 0 1 44 46" fill="none" stroke="#fff" stroke-width="10" stroke-linecap="round"/>
  <!-- marcas -->
  <g stroke="#fff" stroke-width="3" stroke-linecap="round">
    <line x1="30" y1="68" x2="36" y2="70"/>
    <line x1="42" y1="44" x2="46" y2="48"/>
    <line x1="64" y1="34" x2="64" y2="40"/>
    <line x1="86" y1="44" x2="82" y2="48"/>
    <line x1="98" y1="68" x2="92" y2="70"/>
  </g>
  <!-- aguja hacia la zona baja -->
  <g transform="rotate(-62 64 78)">
    <path d="M 64 78 L 60 74 L 64 40 L 68 74 Z" fill="#fff"/>
  </g>
  <circle cx="64" cy="78" r="7" fill="#fff"/>
  <circle cx="64" cy="78" r="3" fill="#157a5b"/>
  <text x="64" y="110" font-family="DejaVu Sans, Arial, sans-serif" font-size="17" font-weight="bold" fill="#fff" text-anchor="middle">1,6 GHz</text>
</svg>
